<svg width="32" height="32" viewBox="0 0 32 32" fill="none" xmlns="http://www.w3.org/2000/svg">
  <!-- Background Circle with Gradient -->
  <defs>
    <linearGradient id="bgGradient" x1="0%" y1="0%" x2="100%" y2="100%">
      <stop offset="0%" style="stop-color:#667eea;stop-opacity:1" />
      <stop offset="100%" style="stop-color:#764ba2;stop-opacity:1" />
    </linearGradient>
    <linearGradient id="letterGradient" x1="0%" y1="0%" x2="100%" y2="100%">
      <stop offset="0%" style="stop-color:#ffffff;stop-opacity:1" />
      <stop offset="100%" style="stop-color:#f0f0f0;stop-opacity:1" />
    </linearGradient>
  </defs>
  
  <!-- Background Circle -->
  <circle cx="16" cy="16" r="16" fill="url(#bgGradient)"/>
  
  <!-- Letter R -->
  <path d="M9 8 L9 24 L11.5 24 L11.5 17 L16 17 L19.5 24 L22.5 24 L18.5 16.5 C20.5 15.8 21.5 14.2 21.5 12 C21.5 9 19.5 8 17 8 L9 8 Z M11.5 10.5 L16.5 10.5 C17.8 10.5 19 11.2 19 12.5 C19 13.8 17.8 14.5 16.5 14.5 L11.5 14.5 L11.5 10.5 Z" fill="url(#letterGradient)" stroke="none"/>
  
  <!-- Subtle Shadow/Depth -->
  <circle cx="16" cy="16" r="15" fill="none" stroke="rgba(255,255,255,0.2)" stroke-width="1"/>
</svg>
